<svg width="26" height="26" viewBox="0 0 26 26" fill="none" xmlns="http://www.w3.org/2000/svg">
<path d="M3 6C3 5.44772 3.44772 5 4 5H10.8074C10.9346 5 11.0607 5.02428 11.1788 5.07152L13.3212 5.92848C13.4393 5.97572 13.5654 6 13.6926 6H22C22.5523 6 23 6.44772 23 7V20C23 20.5523 22.5523 21 22 21H4C3.44772 21 3 20.5523 3 20V6Z" fill="#486581"/>
<path d="M10.75 8.75L12.9761 6.96913C13.1534 6.82728 13.3737 6.75 13.6008 6.75H22C22.5523 6.75 23 7.19772 23 7.75L23 18.7C23 19.2523 22.5523 19.7 22 19.7H4C3.44772 19.7 3 19.2523 3 18.7V9.75C3 9.19771 3.44772 8.75 4 8.75H10.75Z" fill="#D8E9F8"/>
<path d="M10.9167 9L13.2297 7.20928C13.4049 7.07361 13.6202 7 13.8419 7H22C22.5523 7 23 7.44772 23 8L23 19.2C23 19.7523 22.5523 20.2 22 20.2H4C3.44772 20.2 3 19.7523 3 19.2V10C3 9.44771 3.44772 9 4 9H10.9167Z" fill="url(#paint0_linear_204_10550)"/>
<line x1="8.5" y1="11.5" x2="13.5" y2="11.5" stroke="#486581" stroke-linecap="round"/>
<line x1="8.5" y1="13.5" x2="13.5" y2="13.5" stroke="#486581" stroke-linecap="round"/>
<line x1="8.5" y1="15.5" x2="17.5" y2="15.5" stroke="#486581" stroke-linecap="round"/>
<line x1="8.5" y1="17.5" x2="17.5" y2="17.5" stroke="#486581" stroke-linecap="round"/>
<rect x="15" y="11" width="3" height="3" rx="1" fill="url(#paint1_linear_204_10550)"/>
<defs>
<linearGradient id="paint0_linear_204_10550" x1="11" y1="12" x2="16.6055" y2="23.9896" gradientUnits="userSpaceOnUse">
<stop stop-color="#BECEDF"/>
<stop offset="1" stop-color="#5D7B92"/>
</linearGradient>
<linearGradient id="paint1_linear_204_10550" x1="16" y1="11.75" x2="18" y2="14" gradientUnits="userSpaceOnUse">
<stop stop-color="white"/>
<stop offset="1" stop-color="#F3ECEC"/>
</linearGradient>
</defs>
</svg>
