<svg width="26" height="26" viewBox="0 0 26 26" fill="none" xmlns="http://www.w3.org/2000/svg">
<path d="M3 6C3 5.44772 3.44772 5 4 5H10.8074C10.9346 5 11.0607 5.02428 11.1788 5.07152L13.3212 5.92848C13.4393 5.97572 13.5654 6 13.6926 6H22C22.5523 6 23 6.44772 23 7V20C23 20.5523 22.5523 21 22 21H4C3.44772 21 3 20.5523 3 20V6Z" fill="#A7512A"/>
<path d="M10.75 8.75L12.9761 6.96913C13.1534 6.82728 13.3737 6.75 13.6008 6.75H22C22.5523 6.75 23 7.19772 23 7.75L23 18.7C23 19.2523 22.5523 19.7 22 19.7H4C3.44772 19.7 3 19.2523 3 18.7V9.75C3 9.19771 3.44772 8.75 4 8.75H10.75Z" fill="#FFA68A"/>
<path d="M10.9167 9L13.2297 7.20928C13.4049 7.07361 13.6202 7 13.8419 7H22C22.5523 7 23 7.44772 23 8L23 19.2C23 19.7523 22.5523 20.2 22 20.2H4C3.44772 20.2 3 19.7523 3 19.2V10C3 9.44771 3.44772 9 4 9H10.9167Z" fill="url(#paint0_linear_204_10552)"/>
<path d="M13.3099 10.0111C13.2283 9.98773 13.1395 10.0018 13.0708 10.0489C13.0021 10.096 12.9615 10.1707 12.9615 10.25V15.2024C12.6471 14.9222 12.2202 14.75 11.75 14.75C10.7835 14.75 10 15.4775 10 16.375C10 17.2725 10.7835 18 11.75 18C12.7165 18 13.5 17.2725 13.5 16.375C13.5 16.3448 13.4991 16.3149 13.4974 16.2851C13.4991 16.2736 13.5 16.2619 13.5 16.25V12.5885L16.6516 13.4889C16.7333 13.5123 16.822 13.4982 16.8907 13.4511C16.9594 13.404 17 13.3293 17 13.25V11.9886C17 11.4398 16.6146 10.9552 16.0497 10.7939L13.3099 10.0111Z" fill="url(#paint1_linear_204_10552)"/>
<defs>
<linearGradient id="paint0_linear_204_10552" x1="4" y1="8" x2="13.3945" y2="26.0104" gradientUnits="userSpaceOnUse">
<stop stop-color="#F2885F"/>
<stop offset="1" stop-color="#9A6FA7"/>
</linearGradient>
<linearGradient id="paint1_linear_204_10552" x1="12.3333" y1="12" x2="17.703" y2="17.2858" gradientUnits="userSpaceOnUse">
<stop offset="0.157588" stop-color="white"/>
<stop offset="0.644219" stop-color="#F3ECEC"/>
</linearGradient>
</defs>
</svg>
