<svg width="26" height="26" viewBox="0 0 26 26" fill="none" xmlns="http://www.w3.org/2000/svg">
<path d="M3 6C3 5.44772 3.44772 5 4 5H10.2074C10.3985 5 10.5855 5.05474 10.7465 5.15773L12.7535 6.44227C12.9145 6.54526 13.1015 6.6 13.2926 6.6H22C22.5523 6.6 23 7.04772 23 7.6V20C23 20.5523 22.5523 21 22 21H4C3.44772 21 3 20.5523 3 20V6Z" fill="#F9B919"/>
<path d="M10.9167 10.6L13.1264 8.47856C13.3127 8.29978 13.5608 8.19995 13.819 8.19995H22C22.5523 8.19995 23 8.64767 23 9.19995V19.2C23 19.7522 22.5523 20.2 22 20.2H4C3.44772 20.2 3 19.7522 3 19.2V11.6C3 11.0477 3.44772 10.6 4 10.6H10.9167Z" fill="url(#paint0_linear_204_10546)"/>
<path d="M7 21C7 18.2386 9.23858 16 12 16H14C16.7614 16 19 18.2386 19 21H7Z" fill="#0078D4"/>
<defs>
<linearGradient id="paint0_linear_204_10546" x1="13" y1="7.39995" x2="22.4837" y2="20.5717" gradientUnits="userSpaceOnUse">
<stop stop-color="#FFE79F"/>
<stop offset="1" stop-color="#FFC937"/>
</linearGradient>
</defs>
</svg>
