<svg width="26" height="26" viewBox="0 0 26 26" fill="none" xmlns="http://www.w3.org/2000/svg">
<path d="M3 6C3 5.44772 3.44772 5 4 5H10.8074C10.9346 5 11.0607 5.02428 11.1788 5.07152L13.3212 5.92848C13.4393 5.97572 13.5654 6 13.6926 6H22C22.5523 6 23 6.44772 23 7V20C23 20.5523 22.5523 21 22 21H4C3.44772 21 3 20.5523 3 20V6Z" fill="#7A5BBE"/>
<path d="M10.75 8.75L12.9761 6.96913C13.1534 6.82728 13.3737 6.75 13.6008 6.75H22C22.5523 6.75 23 7.19772 23 7.75L23 18.7C23 19.2523 22.5523 19.7 22 19.7H4C3.44772 19.7 3 19.2523 3 18.7V9.75C3 9.19771 3.44772 8.75 4 8.75H10.75Z" fill="#BC8FF8"/>
<path d="M10.9167 9L13.2297 7.20928C13.4049 7.07361 13.6202 7 13.8419 7H22C22.5523 7 23 7.44772 23 8L23 19.2C23 19.7523 22.5523 20.2 22 20.2H4C3.44772 20.2 3 19.7523 3 19.2V10C3 9.44771 3.44772 9 4 9H10.9167Z" fill="url(#paint0_linear_204_10554)"/>
<path d="M11.6625 10.1532C10.9201 9.71279 10 10.2746 10 11.1683V16.8317C10 17.7256 10.9204 18.2874 11.6628 17.8467L16.4353 15.0139C17.1884 14.5669 17.1882 13.4305 16.435 12.9838L11.6625 10.1532Z" fill="url(#paint1_linear_204_10554)"/>
<defs>
<linearGradient id="paint0_linear_204_10554" x1="4" y1="8" x2="13.3945" y2="26.0104" gradientUnits="userSpaceOnUse">
<stop stop-color="#B670FE"/>
<stop offset="1" stop-color="#8C4FE9"/>
</linearGradient>
<linearGradient id="paint1_linear_204_10554" x1="12.3333" y1="12" x2="17.703" y2="17.2858" gradientUnits="userSpaceOnUse">
<stop stop-color="white"/>
<stop offset="1" stop-color="#F3ECEC"/>
</linearGradient>
</defs>
</svg>
