<svg width="26" height="26" viewBox="0 0 26 26" fill="none" xmlns="http://www.w3.org/2000/svg">
<path d="M3 6C3 5.44772 3.44772 5 4 5H10.8074C10.9346 5 11.0607 5.02428 11.1788 5.07152L13.3212 5.92848C13.4393 5.97572 13.5654 6 13.6926 6H22C22.5523 6 23 6.44772 23 7V20C23 20.5523 22.5523 21 22 21H4C3.44772 21 3 20.5523 3 20V6Z" fill="#F9B919"/>
<path d="M10.75 8.75L12.9761 6.96913C13.1534 6.82728 13.3737 6.75 13.6008 6.75H22C22.5523 6.75 23 7.19772 23 7.75L23 18.7C23 19.2523 22.5523 19.7 22 19.7H4C3.44772 19.7 3 19.2523 3 18.7V9.75C3 9.19771 3.44772 8.75 4 8.75H10.75Z" fill="#FFEDB9"/>
<path d="M10.9167 9L13.2297 7.20928C13.4049 7.07361 13.6202 7 13.8419 7H22C22.5523 7 23 7.44772 23 8L23 19.2C23 19.7523 22.5523 20.2 22 20.2H4C3.44772 20.2 3 19.7523 3 19.2V10C3 9.44771 3.44772 9 4 9H10.9167Z" fill="url(#paint0_linear_204_10558)"/>
<line x1="17.5" y1="11" x2="17.5" y2="21" stroke="#999999"/>
<path d="M15.5 14C15.2239 14 15 13.7761 15 13.5C15 13.2239 15.2239 13 15.5 13L15.5 14ZM17 13L17.5 13L17.5 14L17 14L17 13ZM15.5 13L17 13L17 14L15.5 14L15.5 13Z" fill="#999999"/>
<path d="M15.5 18C15.2239 18 15 17.7761 15 17.5C15 17.2239 15.2239 17 15.5 17L15.5 18ZM17 17L17.5 17L17.5 18L17 18L17 17ZM15.5 17L17 17L17 18L15.5 18L15.5 17Z" fill="#999999"/>
<path d="M19.5 16C19.7761 16 20 15.7761 20 15.5C20 15.2239 19.7761 15 19.5 15L19.5 16ZM18 15L17.5 15L17.5 16L18 16L18 15ZM19.5 15L18 15L18 16L19.5 16L19.5 15Z" fill="#999999"/>
<path d="M19.5 20C19.7761 20 20 19.7761 20 19.5C20 19.2239 19.7761 19 19.5 19L19.5 20ZM18.5 19L18 19L18 20L18.5 20L18.5 19ZM19.5 19L18.5 19L18.5 20L19.5 20L19.5 19Z" fill="#999999"/>
<path d="M16 6.5H19C19.2761 6.5 19.5 6.72386 19.5 7V10C19.5 10.2761 19.2761 10.5 19 10.5H16C15.7239 10.5 15.5 10.2761 15.5 10V7C15.5 6.72386 15.7239 6.5 16 6.5Z" stroke="#999999"/>
<defs>
<linearGradient id="paint0_linear_204_10558" x1="4" y1="8" x2="13.3945" y2="26.0104" gradientUnits="userSpaceOnUse">
<stop stop-color="#FFE79F"/>
<stop offset="1" stop-color="#FFCB40"/>
</linearGradient>
</defs>
</svg>
